<?xml version="1.0" encoding="UTF-8"?>
<svg width="117px" height="39px" viewBox="0 0 117 39" version="1.1" xmlns="http://www.w3.org/2000/svg" xmlns:xlink="http://www.w3.org/1999/xlink">
    <!-- Generator: Sketch 54.1 (76490) - https://sketchapp.com -->
    <title>gravity-community-logo</title>
    <desc>Created with Sketch.</desc>
    <defs>
        <path d="M44.7061481,9.93333333 L42.2013148,9.93333333 C42.1762036,9.20832971 41.9062618,8.5989608 41.3914815,8.10520833 C40.8767011,7.61145586 40.1673193,7.36458333 39.2633148,7.36458333 C38.2211985,7.36458333 37.4333453,7.68333015 36.8997315,8.32083333 C36.3661177,8.95833652 36.0993148,9.83957771 36.0993148,10.9645833 L36.0993148,13.0270833 C36.0993148,14.1895891 36.3567011,15.10208 36.8714815,15.7645833 C37.3862618,16.4270866 38.1898094,16.7583333 39.2821481,16.7583333 C40.2112639,16.7583333 40.9394788,16.5083358 41.4668148,16.0083333 C41.9941508,15.5083308 42.2578148,14.8833371 42.2578148,14.1333333 L42.2578148,13.9458333 L39.3009815,13.9458333 L39.3009815,11.8083333 L44.8379815,11.8083333 L44.8379815,13.5145833 C44.8379815,15.1020913 44.3263477,16.3895784 43.3030648,17.3770833 C42.2797819,18.3645883 40.9269343,18.8583333 39.2444815,18.8583333 C37.3736943,18.8583333 35.9455142,18.3083388 34.9598981,17.2083333 C33.9742821,16.1083278 33.4814815,14.695842 33.4814815,12.9708333 L33.4814815,11.0583333 C33.4814815,9.2708244 33.9868375,7.84896361 34.9975648,6.79270833 C36.0082921,5.73645305 37.4050837,5.20833333 39.1879815,5.20833333 C40.8578787,5.20833333 42.1856154,5.64895393 43.1712315,6.53020833 C44.1568475,7.41146274 44.6684813,8.5458264 44.7061481,9.93333333 Z M55.1586481,18.5958333 L52.7479815,14.3958333 L49.9794815,14.3958333 L49.9794815,18.5958333 L47.3428148,18.5958333 L47.3428148,5.47083333 L53.2941481,5.47083333 C54.8008223,5.47083333 55.9716162,5.88332921 56.8065648,6.70833333 C57.6415134,7.53333746 58.0589815,8.60832671 58.0589815,9.93333333 C58.0589815,10.858338 57.8298449,11.6770798 57.3715648,12.3895833 C56.9132847,13.1020869 56.2760967,13.6333316 55.4599815,13.9833333 L58.2096481,18.5958333 L55.1586481,18.5958333 Z M49.9794815,12.2770833 L52.9739815,12.2770833 C53.7649854,12.2770833 54.3707849,12.0614605 54.7913981,11.6302083 C55.2120114,11.1989562 55.4223148,10.6270869 55.4223148,9.91458333 C55.4223148,9.20207977 55.2120114,8.6395854 54.7913981,8.22708333 C54.3707849,7.81458127 53.7649854,7.60833333 52.9739815,7.60833333 L49.9794815,7.60833333 L49.9794815,12.2770833 Z M67.0613148,5.47083333 L71.7884815,18.5958333 L69.1706481,18.5958333 L68.2854815,15.8395833 L63.1628148,15.8395833 L62.2776481,18.5958333 L59.6598148,18.5958333 L64.3869815,5.47083333 L67.0613148,5.47083333 Z M65.7241481,7.83333333 L63.8219815,13.7583333 L67.6074815,13.7583333 L65.7241481,7.83333333 Z M82.6553148,5.47083333 L78.2859815,18.5958333 L75.3103148,18.5958333 L70.9409815,5.47083333 L73.6341481,5.47083333 L76.7981481,15.7270833 L79.9621481,5.47083333 L82.6553148,5.47083333 Z M84.6139815,18.5958333 L84.6139815,5.47083333 L87.2506481,5.47083333 L87.2506481,18.5958333 L84.6139815,18.5958333 Z M93.0136481,18.5958333 L93.0136481,7.64583333 L89.2846481,7.64583333 L89.2846481,5.47083333 L99.3793148,5.47083333 L99.3793148,7.64583333 L95.6503148,7.64583333 L95.6503148,18.5958333 L93.0136481,18.5958333 Z M107.439981,13.8708333 L107.439981,18.5958333 L104.803315,18.5958333 L104.803315,13.8708333 L100.283315,5.47083333 L103.145981,5.47083333 L106.121648,11.3208333 L109.097315,5.47083333 L111.959981,5.47083333 L107.439981,13.8708333 Z" id="path-1"></path>
    </defs>
    <g id="Gravity-Cluster---Dev-Experience" stroke="none" stroke-width="1" fill="none" fill-rule="evenodd">
        <g id="Cluster---Dashboard-Graphs-&amp;-Events" transform="translate(-32.000000, -16.000000)" fill="#FFFFFF">
            <g id="gravity/navigation/sidebar---dev">
                <g id="Gravity-Logo" transform="translate(32.000000, 16.000000)">
                    <g id="gravity-community-logo">
                        <g id="gravity/logo/gravity---with-text">
                            <g id="gravity-logo">
                                <g id="Product">
                                    <use fill-opacity="0.56" xlink:href="#path-1"></use>
                                    <use xlink:href="#path-1"></use>
                                </g>
                                <g id="logo/gravity/white" fill-rule="nonzero">
                                    <path d="M24.8045866,16.0299911 L22.2792974,13.9553702 C22.369513,13.4915206 22.3952087,12.9910748 22.3952087,12.5028868 C22.3952087,12.0148766 22.369513,11.5144306 22.2792974,11.0505811 L24.8045866,8.97578243 C24.9850179,8.85373546 25.0497256,8.62207716 24.9593224,8.42665987 C24.4437237,6.92567746 23.5548835,5.49771005 22.4595412,4.31401426 C22.3051805,4.14311296 22.0861119,4.08200063 21.8797975,4.16762894 L18.6973031,5.21701976 C17.9114324,4.60678487 17.022217,4.1187746 16.0688567,3.76471403 L15.4377221,0.640702221 C15.3990848,0.445462586 15.2186535,0.262303294 14.9993974,0.237964959 C13.3501945,-0.079321653 11.6496007,-0.079321653 10.0003978,0.237964959 C9.78132933,0.262303294 9.60089797,0.445462586 9.56226088,0.640702221 L8.9309386,3.76489167 C7.97757819,4.11895226 7.06266728,4.60696253 6.30249222,5.21719742 L3.11999771,4.16780659 C2.91387081,4.08235593 2.69480235,4.1432906 2.54006649,4.31419189 C1.44491176,5.4978877 0.555883945,6.92585512 0.0404728819,8.42683753 C-0.04974281,8.6222548 0.0147773522,8.85391312 0.195021177,8.97596009 L2.72031032,11.0507587 C2.63028218,11.5144306 2.6043991,12.0150542 2.6043991,12.5030644 C2.6043991,12.9912524 2.63009463,13.4915206 2.72031032,13.9555478 L0.195208736,16.0299911 C0.0149649109,16.1520382 -0.0495552513,16.3838741 0.0406604405,16.5791137 C0.556071503,18.0802738 1.44509931,19.5082413 2.54025405,20.691937 C2.6949899,20.8628384 2.91405836,20.9237729 3.12018528,20.8383224 L6.30267978,19.7887538 C7.06285484,20.3991664 7.97776574,20.8871766 8.93112616,21.2410596 L9.56244844,24.3654268 C9.60108552,24.5606663 9.78132933,24.7438257 10.0005853,24.7681641 C10.825093,24.9145492 11.6496007,25 12.500179,25 C13.3503821,25 14.1752649,24.9147269 14.999585,24.7681641 C15.218841,24.7438257 15.3992724,24.5606663 15.4379095,24.3654268 L16.0692318,21.2410596 C17.0225921,20.8871766 17.9116201,20.3991664 18.6976782,19.7887538 L21.8801726,20.8383224 C22.0864871,20.9235954 22.3055556,20.8628384 22.4599164,20.691937 C23.5552586,19.5082413 24.4440989,18.0802738 24.9596975,16.5791137 C25.0497256,16.3838741 24.9850179,16.1520382 24.8045866,16.0299911 L24.8045866,16.0299911 L24.8045866,16.0299911 L24.8045866,16.0299911 Z M12.5146696,20.5624151 C7.80719739,20.5624151 3.99108964,16.9527215 3.99108964,12.5 C3.99108964,8.04727848 7.80719739,4.43758485 12.5146696,4.43758485 C17.2221418,4.43758485 21.0382496,8.04727848 21.0382496,12.5 C21.0382496,16.9527215 17.2221418,20.5624151 12.5146696,20.5624151 Z M17.0598093,12.372234 C17.1368368,12.372234 17.1991414,12.4294324 17.1992481,12.5000489 C17.1992481,14.8579164 15.1096936,16.7763158 12.5413318,16.7763158 C9.9726499,16.7763158 7.88298872,14.8580143 7.88298872,12.5000489 C7.88298872,10.1420836 9.9726499,8.22368421 12.5413318,8.22368421 C13.4894514,8.22368421 14.4023647,8.48421121 15.1811733,8.97695985 C15.2443316,9.01711627 15.2603345,9.09654763 15.2168065,9.15472547 L13.690448,11.1917333 C13.6482003,11.2482461 13.5648785,11.2640148 13.5015069,11.2274823 C13.2359652,11.0741043 12.930096,10.9931059 12.6170789,10.9931059 C11.6976579,10.9931059 10.9495748,11.6798786 10.9495748,12.5241428 C10.9495748,13.3683091 11.6975512,14.0550818 12.6170789,14.0550818 C13.0764694,14.0550818 13.5152695,13.8782957 13.8283933,13.5749678 C13.8297802,13.5736945 13.8311671,13.5724212 13.832554,13.5709521 C13.8336208,13.5699727 13.8347944,13.5689932 13.8358612,13.5679159 L13.8356479,13.5675242 C13.8551715,13.54725 13.8673337,13.5210014 13.8673337,13.4918145 C13.8673337,13.4628236 13.8551715,13.4363791 13.8356479,13.416105 L13.835968,13.4157133 L13.1303459,12.578305 C13.0978066,12.5397157 13.0919389,12.4874144 13.1153032,12.443732 C13.1387741,12.3999518 13.1873163,12.372234 13.240446,12.372234 L17.0598093,12.372234 Z M12.5146696,19.5452007 C16.6280237,19.5452007 19.9626085,16.3909843 19.9626085,12.5 C19.9626085,8.60901566 16.6280237,5.45479925 12.5146696,5.45479925 C8.40131551,5.45479925 5.06673067,8.60901566 5.06673067,12.5 C5.06673067,16.3909843 8.40131551,19.5452007 12.5146696,19.5452007 Z"></path>
                                </g>
                            </g>
                        </g>
                        <text id="COMMUNITY-EDITION" font-family="Ubuntu-Bold, Ubuntu" font-size="11" font-weight="bold" line-spacing="16">
                            <tspan x="0" y="38">COMMUNITY EDITION</tspan>
                        </text>
                    </g>
                </g>
            </g>
        </g>
    </g>
</svg>