<?xml version="1.0" encoding="UTF-8"?>
<svg width="123px" height="127px" viewBox="0 0 123 127" version="1.1" xmlns="http://www.w3.org/2000/svg" xmlns:xlink="http://www.w3.org/1999/xlink">
    <!-- Generator: Sketch 52.5 (67469) - http://www.bohemiancoding.com/sketch -->
    <title>gravity-medallion </title>
    <desc>Created with Sketch.</desc>
    <defs>
        <linearGradient x1="50%" y1="0%" x2="50%" y2="100%" id="linearGradient-1">
            <stop stop-color="#1E2751" offset="0%"></stop>
            <stop stop-color="#0C143D" offset="100%"></stop>
        </linearGradient>
        <linearGradient x1="0%" y1="3.34960937%" x2="100%" y2="100%" id="linearGradient-2">
            <stop stop-color="#3849B5" offset="0%"></stop>
            <stop stop-color="#1A237E" offset="100%"></stop>
        </linearGradient>
        <circle id="path-3" cx="57.5" cy="57.5" r="57.5"></circle>
        <filter x="-7.0%" y="-7.0%" width="113.9%" height="117.4%" filterUnits="objectBoundingBox" id="filter-4">
            <feOffset dx="0" dy="4" in="SourceAlpha" result="shadowOffsetOuter1"></feOffset>
            <feGaussianBlur stdDeviation="2" in="shadowOffsetOuter1" result="shadowBlurOuter1"></feGaussianBlur>
            <feComposite in="shadowBlurOuter1" in2="SourceAlpha" operator="out" result="shadowBlurOuter1"></feComposite>
            <feColorMatrix values="0 0 0 0 0   0 0 0 0 0   0 0 0 0 0  0 0 0 0.24 0" type="matrix" in="shadowBlurOuter1" result="shadowMatrixOuter1"></feColorMatrix>
            <feOffset dx="0" dy="0" in="SourceAlpha" result="shadowOffsetOuter2"></feOffset>
            <feGaussianBlur stdDeviation="2" in="shadowOffsetOuter2" result="shadowBlurOuter2"></feGaussianBlur>
            <feComposite in="shadowBlurOuter2" in2="SourceAlpha" operator="out" result="shadowBlurOuter2"></feComposite>
            <feColorMatrix values="0 0 0 0 0   0 0 0 0 0   0 0 0 0 0  0 0 0 0.12 0" type="matrix" in="shadowBlurOuter2" result="shadowMatrixOuter2"></feColorMatrix>
            <feMerge>
                <feMergeNode in="shadowMatrixOuter1"></feMergeNode>
                <feMergeNode in="shadowMatrixOuter2"></feMergeNode>
            </feMerge>
        </filter>
    </defs>
    <g id="Gravity" stroke="none" stroke-width="1" fill="none" fill-rule="evenodd">
        <g id="Gravity---Reset-Password" transform="translate(-661.000000, -39.000000)">
            <g id="gravity-medallion-" transform="translate(665.000000, 43.000000)">
                <g id="Oval" fill-rule="nonzero">
                    <use fill="black" fill-opacity="1" filter="url(#filter-4)" xlink:href="#path-3"></use>
                    <circle stroke="url(#linearGradient-2)" stroke-width="2" stroke-linejoin="square" fill="url(#linearGradient-1)" fill-rule="evenodd" cx="57.5" cy="57.5" r="56.5"></circle>
                </g>
                <g id="gravity/logo/gravity" style="mix-blend-mode: overlay;" transform="translate(21.000000, 19.000000)" fill="#FFFFFF">
                    <g id="Combined-Shape">
                        <path d="M71.202989,48.7311731 L63.9540014,42.4243255 C64.2129706,41.0142227 64.2867315,39.4928673 64.2867315,38.008776 C64.2867315,36.5252248 64.2129706,35.003869 63.9540014,33.5937664 L71.202989,27.2863786 C71.7209275,26.9153558 71.9066746,26.2111146 71.6471669,25.617046 C70.1671115,21.0540595 67.6156445,16.7130386 64.4714018,13.1146033 C64.0283004,12.5950634 63.3994515,12.4092819 62.8072141,12.669592 L53.6716814,15.8597401 C51.4157944,14.004626 48.8632506,12.5210748 46.126575,11.4447307 L44.3148669,1.94773475 C44.2039566,1.35420626 43.6860181,0.797402013 43.0566309,0.723413475 C38.3224994,-0.241137825 33.4408472,-0.241137825 28.7067157,0.723413475 C28.0778671,0.797402013 27.5599285,1.35420626 27.4490185,1.94773475 L25.6367717,11.4452707 C22.9000959,12.5216149 20.2737917,14.0051661 18.0916655,15.8602801 L8.95613245,12.670132 C8.36443334,12.410362 7.73558476,12.5956034 7.29140659,13.1151434 C4.14770211,16.7135786 1.59569676,21.0545996 0.11617973,25.6175861 C-0.14278959,26.2116546 0.0424192374,26.9158959 0.559819477,27.2869187 L7.80880686,33.5943065 C7.55037592,35.003869 7.47607705,36.5257646 7.47607705,38.0093158 C7.47607705,39.4934072 7.54983753,41.0142227 7.80880686,42.4248653 L0.560357878,48.7311731 C0.0429576354,49.1021961 -0.142251192,49.8069774 0.116718127,50.4005057 C1.59623516,54.9640324 4.14824049,59.3050535 7.29194501,62.9034883 C7.73612314,63.4230287 8.36497173,63.6082696 8.95667086,63.3484999 L18.0922039,60.1578116 C20.2743301,62.0134658 22.9006343,63.497017 25.6373101,64.5728213 L27.4495569,74.0708974 C27.5604669,74.6644257 28.0778671,75.2212301 28.707254,75.2952187 C31.0740506,75.7402296 33.4408472,76 35.882481,76 C38.3230379,76 40.6909114,75.7407698 43.0571693,75.2952187 C43.6865562,75.2212301 44.204495,74.6644257 44.315405,74.0708974 L46.1276518,64.5728213 C48.8643275,63.497017 51.4163331,62.0134658 53.6727582,60.1578116 L62.808291,63.3484999 C63.4005284,63.6077301 64.0293772,63.4230287 64.4724786,62.9034883 C67.6167214,59.3050535 70.1681883,54.9640324 71.6482438,50.4005057 C71.9066746,49.8069774 71.7209275,49.1021961 71.202989,48.7311731 L71.202989,48.7311731 L71.202989,48.7311731 L71.202989,48.7311731 Z M35.9240772,62.509742 C22.411008,62.509742 11.4566518,51.5362734 11.4566518,38 C11.4566518,24.4637266 22.411008,13.490258 35.9240772,13.490258 C49.4371463,13.490258 60.3915025,24.4637266 60.3915025,38 C60.3915025,51.5362734 49.4371463,62.509742 35.9240772,62.509742 Z M48.9711616,37.6115914 C49.1922733,37.6115914 49.3711223,37.7854745 49.3714286,38.0001488 C49.3714286,45.1680657 43.3732424,51 36.0006125,51 C28.6270637,51 22.6285714,45.1683634 22.6285714,38.0001488 C22.6285714,30.8319343 28.6270637,25 36.0006125,25 C38.7222442,25 41.3428141,25.7920021 43.578429,27.289958 C43.7597285,27.4120335 43.8056658,27.6535048 43.6807163,27.8303654 L39.2992166,34.0228691 C39.1779422,34.1946681 38.9387621,34.242605 38.7568503,34.1315461 C37.9945975,33.6652772 37.1165825,33.4190419 36.218049,33.4190419 C33.5787982,33.4190419 31.4313826,35.5068309 31.4313826,38.0733941 C31.4313826,40.6396596 33.5784919,42.7274486 36.218049,42.7274486 C37.5367557,42.7274486 38.7963565,42.1900188 39.6951963,41.267902 C39.6991775,41.2640314 39.7031587,41.2601604 39.7071399,41.2556945 C39.7102023,41.2527169 39.7135712,41.2497393 39.7166336,41.2464643 L39.716021,41.2452734 C39.7720647,41.18364 39.806977,41.1038443 39.806977,41.0151162 C39.806977,40.9269838 39.7720647,40.8465924 39.716021,40.7849592 L39.71694,40.7837683 L37.6914113,38.2380473 C37.5980054,38.1207356 37.5811619,37.9617398 37.6482303,37.8289454 C37.7156051,37.6958534 37.854948,37.6115914 38.00746,37.6115914 L48.9711616,37.6115914 Z M35.9240772,59.4174103 C47.7316961,59.4174103 57.3038132,49.8285924 57.3038132,38 C57.3038132,26.1714076 47.7316961,16.5825897 35.9240772,16.5825897 C24.1164582,16.5825897 14.5443411,26.1714076 14.5443411,38 C14.5443411,49.8285924 24.1164582,59.4174103 35.9240772,59.4174103 Z" fill-rule="nonzero"></path>
                    </g>
                </g>
            </g>
        </g>
    </g>
</svg>