<?xml version="1.0" encoding="UTF-8" standalone="no"?>
<svg width="626px" height="661px" viewBox="0 0 626 661" version="1.1" xmlns="http://www.w3.org/2000/svg" xmlns:xlink="http://www.w3.org/1999/xlink">    
    <title>telekube-logo</title>    
    <defs></defs>
    <g id="Page-1" stroke="none" stroke-width="1" fill-rule="evenodd">
        <g id="Artboard" transform="translate(-60.000000, -35.000000)">
            <g id="telekube-logo" transform="translate(60.000000, 35.000000)">
                <path d="M620.93647,423.664545 L589.333238,396.244715 L557.734701,368.834275 C558.861543,362.69768 559.589296,356.335716 560.025947,349.879848 C560.471989,343.433371 560.631625,336.89299 560.631625,330.446513 C560.631625,323.990646 560.471989,317.459655 560.025947,311.003788 C559.5846,304.552615 558.861543,298.181261 557.734701,292.049361 L589.333238,264.634226 L620.93647,237.219091 C623.19485,235.60395 624.739563,233.270448 625.420363,230.688101 C626.101164,228.105754 625.936833,225.288648 624.809991,222.701606 C618.354123,202.869181 609.569448,183.515664 598.958349,165.209171 C588.356641,146.907374 575.94729,129.647905 562.237375,114.008273 C560.302962,111.749893 557.964764,110.21457 555.466931,109.53377 C552.973792,108.848274 550.302237,109.012605 547.72928,110.139447 L507.895404,124.008998 L468.070918,137.873854 C458.229828,129.807541 447.750194,122.553494 436.744701,116.144578 C425.729817,109.735662 414.198464,104.171878 402.263326,99.4907874 L394.366039,58.2107967 L386.459362,16.930806 C385.975759,14.348459 384.600072,11.8506252 382.665659,9.9162125 C380.731247,7.98179984 378.233413,6.61080833 375.486735,6.28684116 C354.842044,2.09404866 333.878082,0 312.914119,0 C291.950157,0 270.986194,2.09404866 250.341504,6.28684116 C247.599521,6.61080833 245.101687,7.98179984 243.162579,9.9162125 C241.228166,11.8506252 239.857175,14.348459 239.373572,16.930806 L231.47159,58.2154919 L223.569608,99.5001777 C211.63447,104.181269 199.94348,109.745053 188.853474,116.153968 C177.768162,122.562884 167.283834,129.816932 157.766711,137.883245 L117.932835,124.018389 L78.0989584,110.148838 C75.5213066,109.0173 72.8591416,108.857664 70.3613077,109.54316 C67.8587787,110.228656 65.5205809,111.759283 63.5861682,114.017663 C49.8809484,129.661991 37.4622069,146.916764 26.8558034,165.218561 C16.2540952,183.520359 7.46472502,202.878571 1.01355269,222.710996 C-0.11798482,225.293343 -0.277620817,228.115144 0.41257011,230.692796 C1.09806586,233.270448 2.62869336,235.608646 4.88707319,237.223786 L36.4950005,264.638921 L68.1029279,292.054056 C66.9760856,298.181261 66.2483332,304.552615 65.8069866,311.003788 C65.3609449,317.45496 65.2013089,323.990646 65.2013089,330.437123 C65.2013089,336.8836 65.3609449,343.428676 65.8022915,349.870458 C66.243638,356.326325 66.9713904,362.688289 68.0982327,368.824885 L36.4950005,396.235325 L4.89176837,423.65985 C2.63808371,425.27499 1.10276104,427.613188 0.417265286,430.19084 C-0.268230464,432.773187 -0.108594468,435.590293 1.01824786,438.167945 C7.4694202,458.01915 16.2587904,477.367972 26.8604986,495.665075 C37.4669021,513.962177 49.8809484,531.221645 63.5908634,546.865973 C65.5299712,549.119658 67.8681691,550.659675 70.3660029,551.340476 C72.8685319,552.025972 75.5260017,551.861641 78.1083487,550.734798 L117.942225,536.860552 L157.776101,522.995696 C167.288529,531.062009 177.772858,538.325447 188.862864,544.734363 C199.948176,551.138583 211.64386,556.702367 223.574303,561.378763 L231.476285,602.672839 L239.378267,643.957525 C239.86187,646.535177 241.232861,649.037706 243.167274,650.972119 C245.101687,652.901836 247.604216,654.282218 250.346199,654.596795 C260.666196,656.531207 270.986194,658.061835 281.38601,659.108859 C291.785826,660.160579 302.270154,660.724 312.92351,660.724 C323.567474,660.724 334.042413,660.160579 344.451619,659.108859 C354.85613,658.061835 365.166737,656.531207 375.486735,654.596795 C378.233413,654.282218 380.731247,652.901836 382.665659,650.972119 C384.604767,649.037706 385.971064,646.535177 386.459362,643.957525 L394.366039,602.672839 L402.268021,561.378763 C414.203159,556.702367 425.734512,551.138583 436.744701,544.734363 C447.750194,538.325447 458.234523,531.062009 468.070918,522.995696 L507.900099,536.860552 L547.72928,550.734798 C550.316322,551.861641 552.973792,552.016581 555.476321,551.340476 C557.96946,550.65498 560.307657,549.119658 562.24207,546.865973 C575.951985,531.221645 588.366031,513.962177 598.96774,495.665075 C609.574143,477.367972 618.363513,458.005065 624.819381,438.167945 C625.946223,435.594988 626.11525,432.773187 625.420363,430.195535 C624.734868,427.617883 623.19485,425.279686 620.93647,423.664545 Z M313,539 C428.427513,539 522,445.427513 522,330 C522,214.572487 428.427513,121 313,121 C197.572487,121 104,214.572487 104,330 C104,445.427513 197.572487,539 313,539 Z" id="Combined-Shape"></path>
                <path d="M340,296.6 L418,296.6 L418,245 L208,245 L208,296.6 L288,296.6 L288,310.317647 L208,360.2 L208,420.8 L288,366.862323 L288,421 L340,421 L340,366.774928 L418,418.7 L418,359.3 L340,310.491617 L340,296.6 Z M312.5,507 C409.978258,507 489,427.978258 489,330.5 C489,233.021742 409.978258,154 312.5,154 C215.021742,154 136,233.021742 136,330.5 C136,427.978258 215.021742,507 312.5,507 Z" id="Combined-Shape"></path>
            </g>
        </g>
    </g>
</svg>