<?xml version="1.0" standalone="no"?>
<!DOCTYPE svg PUBLIC "-//W3C//DTD SVG 20010904//EN"
 "http://www.w3.org/TR/2001/REC-SVG-20010904/DTD/svg10.dtd">
<svg version="1.0" xmlns="http://www.w3.org/2000/svg"
 width="626.000000pt" height="658.000000pt" viewBox="0 0 626.000000 658.000000"
 preserveAspectRatio="xMidYMid meet">
<g transform="translate(0.000000,658.000000) scale(0.100000,-0.100000)" stroke="none">
<path d="M2930 6573 c-273 -25 -434 -52 -473 -78 -13 -8 -31 -30 -40 -48 -14
-27 -167 -796 -167 -839 0 -9 -26 -26 -67 -43 -178 -74 -361 -179 -511 -292
l-84 -64 -404 141 c-221 77 -417 140 -434 140 -49 0 -81 -23 -146 -102 -245
-297 -426 -609 -545 -941 -40 -110 -47 -154 -29 -187 5 -10 158 -147 339 -304
l329 -285 -11 -48 c-14 -62 -14 -602 0 -665 l10 -47 -313 -271 c-172 -149
-325 -285 -339 -301 -36 -43 -32 -80 21 -223 112 -306 304 -637 516 -893 89
-108 119 -133 163 -133 16 0 210 63 430 140 221 77 406 140 410 140 5 0 34
-20 64 -44 134 -104 399 -256 557 -319 37 -14 42 -20 48 -59 9 -58 134 -711
147 -770 17 -73 56 -102 165 -122 351 -64 786 -64 1136 0 93 17 129 37 152 82
7 15 49 213 92 440 l79 413 50 21 c171 72 418 216 549 319 27 22 53 39 57 39
5 0 190 -63 412 -140 221 -77 417 -140 435 -140 42 0 94 47 199 183 207 264
363 542 478 847 48 129 54 180 24 216 -7 9 -159 142 -336 296 -269 234 -322
284 -318 302 31 135 32 600 1 726 -3 10 111 114 316 290 176 151 329 289 339
305 28 44 24 71 -28 212 -114 310 -316 656 -540 924 -68 81 -95 99 -145 99
-18 0 -213 -63 -435 -141 l-403 -140 -58 44 c-145 112 -330 221 -503 297 l-96
42 -18 97 c-9 53 -46 244 -81 426 -79 412 -62 385 -270 420 -228 38 -546 55
-724 38z m520 -1268 c283 -48 554 -150 776 -293 86 -55 98 -73 80 -114 -6 -14
-162 -244 -346 -512 -217 -315 -342 -488 -356 -492 -12 -3 -56 12 -113 40
-127 62 -214 80 -354 74 -201 -9 -341 -72 -489 -219 -72 -72 -93 -101 -132
-180 -56 -117 -78 -207 -78 -329 -1 -316 199 -590 507 -696 72 -25 94 -28 215
-29 114 0 146 4 210 23 99 31 194 82 264 141 70 59 89 85 81 110 -3 11 -80
115 -170 232 -91 117 -165 220 -165 228 0 9 7 27 16 39 l15 22 861 0 c788 0
863 -1 880 -17 49 -44 3 -418 -83 -678 -293 -883 -1156 -1462 -2077 -1394
-1023 76 -1835 895 -1890 1909 -27 492 112 955 405 1348 73 97 245 276 343
355 153 124 368 249 550 320 137 54 352 106 520 127 107 13 418 4 530 -15z"/>
</g>
</svg>
